<svg xmlns="http://www.w3.org/2000/svg" width="28" height="28" viewBox="0 0 28 28" fill="none">
  <path fill-rule="evenodd" clip-rule="evenodd"
    d="M14.0001 8.58208C13.1868 8.58208 12.4545 8.08958 12.1477 7.33632C12.1487 7.33859 12.1481 7.33748 12.1457 7.33319C12.1314 7.30718 12.0528 7.16421 11.861 6.94544C11.6545 6.70995 11.3674 6.44541 11.0098 6.2079C10.3041 5.73922 9.37027 5.40177 8.22463 5.52614C6.55022 5.70791 5.51838 6.50062 4.8789 7.46602C4.19827 8.49354 3.93786 9.76825 4.01218 10.7853C4.09016 11.8522 4.21242 12.6772 4.77794 13.7395C5.37982 14.87 6.54749 16.3796 8.95047 18.5927C11.2204 20.6831 12.808 22.0434 13.8194 22.8629C13.9049 22.9321 13.9674 22.941 14.0001 22.941C14.0328 22.941 14.0953 22.9321 14.1808 22.8629C15.1922 22.0433 16.7798 20.6831 19.0497 18.5927C21.4527 16.3796 22.6203 14.87 23.2222 13.7395C23.7877 12.6772 23.91 11.8522 23.988 10.7853C24.062 9.77252 23.7993 8.49776 23.1155 7.46792C22.4721 6.49912 21.4384 5.7074 19.7747 5.52604C18.8061 5.42046 17.8632 5.73409 17.0697 6.2399C16.6783 6.48937 16.3578 6.76492 16.1291 7.00635C15.9175 7.22973 15.8473 7.35671 15.845 7.35551C15.8446 7.35524 15.8473 7.34896 15.8524 7.33632C15.5457 8.08958 14.8134 8.58208 14.0001 8.58208ZM12.6535 4.93995C13.3698 5.53011 13.8323 6.17001 14.0001 6.58208C14.1647 6.17777 14.6599 5.55902 15.391 4.98215C16.495 4.11118 18.1369 3.33567 19.9914 3.53782C24.5703 4.03694 26.1893 8.10422 25.9827 10.931C25.8084 13.3159 25.3629 15.4974 20.4046 20.0638C18.1132 22.1741 16.4928 23.5636 15.4399 24.4168C14.5773 25.1157 13.4229 25.1157 12.5603 24.4168C11.5074 23.5636 9.88702 22.1741 7.59559 20.0638C2.63729 15.4974 2.19179 13.3159 2.0175 10.931C1.81091 8.10422 3.41107 4.03695 8.00878 3.53782C10.0151 3.32001 11.6059 4.0768 12.6535 4.93995Z"
    fill="black" />
</svg>