<svg width="28" height="28" viewBox="0 0 25 25" fill="none" xmlns="http://www.w3.org/2000/svg">
  <path
    d="M21.1875 4.81875V20.9C21.1898 21.1362 21.1229 21.3679 20.9952 21.5667C20.8675 21.7654 20.6846 21.9226 20.4688 22.0187C20.3071 22.0971 20.1297 22.1377 19.95 22.1375C19.6564 22.1346 19.3732 22.0284 19.15 21.8375L12.7813 16.375L6.41254 21.8375C6.18939 22.0284 5.90617 22.1346 5.61254 22.1375C5.43287 22.1377 5.25551 22.0971 5.0938 22.0187C4.87804 21.9226 4.69506 21.7654 4.56737 21.5667C4.43968 21.3679 4.37285 21.1362 4.37505 20.9V4.81875C4.37505 4.36954 4.5535 3.93873 4.87114 3.62109C5.18877 3.30345 5.61959 3.125 6.0688 3.125H19.4938C19.943 3.125 20.3738 3.30345 20.6914 3.62109C21.0091 3.93873 21.1875 4.36954 21.1875 4.81875V4.81875Z"
    fill="black" />
</svg>
  